<mxfile host="app.diagrams.net" agent="Mozilla/5.0 (Windows NT 10.0; Win64; x64) AppleWebKit/537.36 (KHTML, like Gecko) Chrome/116.0.0.0 Safari/537.36" version="27.2.0">
  <diagram name="第 1 页" id="8LxZiP1NVyg7wSqTXbnJ">
    <mxGraphModel dx="2593" dy="2556" grid="1" gridSize="10" guides="1" tooltips="1" connect="1" arrows="1" fold="1" page="1" pageScale="1" pageWidth="827" pageHeight="1169" math="0" shadow="0">
      <root>
        <mxCell id="0" />
        <mxCell id="1" parent="0" />
        <mxCell id="3B4yekNZGvFQ_pMUscjl-64" value="数据源" style="rounded=1;whiteSpace=wrap;html=1;verticalAlign=top;" parent="1" vertex="1">
          <mxGeometry x="750" y="-799.38" width="1530" height="229.38" as="geometry" />
        </mxCell>
        <mxCell id="EMqu3kAwZpFHPyhhM5yz-33" value="delivery-ext" style="rounded=1;whiteSpace=wrap;html=1;verticalAlign=top;fontStyle=3;fontSize=19;" parent="1" vertex="1">
          <mxGeometry x="1090" y="-527" width="1200" height="195.62" as="geometry" />
        </mxCell>
        <mxCell id="1YZOs5OkidO7PdD_BnGx-1" value="resource" style="rounded=1;whiteSpace=wrap;html=1;verticalAlign=top;fontStyle=3;fontSize=19;" parent="1" vertex="1">
          <mxGeometry x="800" y="-415.62" width="150" height="101.24" as="geometry" />
        </mxCell>
        <mxCell id="EMqu3kAwZpFHPyhhM5yz-104" style="edgeStyle=orthogonalEdgeStyle;rounded=0;orthogonalLoop=1;jettySize=auto;html=1;exitX=0.5;exitY=0;exitDx=0;exitDy=0;" parent="1" source="1YZOs5OkidO7PdD_BnGx-44" edge="1">
          <mxGeometry relative="1" as="geometry">
            <mxPoint x="800" y="-365" as="targetPoint" />
            <Array as="points">
              <mxPoint x="1660" y="-750" />
              <mxPoint x="650" y="-750" />
              <mxPoint x="650" y="-365" />
            </Array>
          </mxGeometry>
        </mxCell>
        <mxCell id="EMqu3kAwZpFHPyhhM5yz-11" value="searchx" style="rounded=1;whiteSpace=wrap;html=1;verticalAlign=top;fontStyle=3;fontSize=19;" parent="1" vertex="1">
          <mxGeometry x="1420" y="-284.38" width="250" height="394.38" as="geometry" />
        </mxCell>
        <mxCell id="EMqu3kAwZpFHPyhhM5yz-12" value="page" style="rounded=1;whiteSpace=wrap;html=1;verticalAlign=top;fontStyle=3;fontSize=19;" parent="1" vertex="1">
          <mxGeometry x="1055" y="-284.38" width="250" height="384.38" as="geometry" />
        </mxCell>
        <mxCell id="4hsmViWtGQXoQg3-sEdV-2" value="角标优先级排序" style="rounded=1;whiteSpace=wrap;html=1;verticalAlign=top;" vertex="1" parent="1">
          <mxGeometry x="1450" y="-251.88" width="180" height="341.88" as="geometry" />
        </mxCell>
        <mxCell id="EMqu3kAwZpFHPyhhM5yz-14" value="update" style="rounded=1;whiteSpace=wrap;html=1;verticalAlign=top;fontStyle=3;fontSize=19;" parent="1" vertex="1">
          <mxGeometry x="2040" y="-284.3800000000001" width="250" height="340" as="geometry" />
        </mxCell>
        <mxCell id="EMqu3kAwZpFHPyhhM5yz-13" value="detail" style="rounded=1;whiteSpace=wrap;html=1;verticalAlign=top;fontStyle=3;fontSize=19;" parent="1" vertex="1">
          <mxGeometry x="1750" y="-284.38" width="250" height="340" as="geometry" />
        </mxCell>
        <mxCell id="4hsmViWtGQXoQg3-sEdV-1" value="角标优先级排序" style="rounded=1;whiteSpace=wrap;html=1;verticalAlign=top;" vertex="1" parent="1">
          <mxGeometry x="1100" y="-250" width="150" height="316.88" as="geometry" />
        </mxCell>
        <UserObject label="&lt;span data-docs-delta=&quot;[[20,&amp;quot;首位广告标＞资源类型标＞官方标＞&amp;quot;,&amp;quot;inline-dir:\&amp;quot;ltr\&amp;quot;&amp;quot;],[20,&amp;quot;官包/官渠 &amp;quot;,&amp;quot;8:1|inline-dir:\&amp;quot;ltr\&amp;quot;&amp;quot;],[20,&amp;quot;&gt; 广告主权益标＞竞价广告 &gt; &amp;quot;,&amp;quot;inline-dir:\&amp;quot;ltr\&amp;quot;&amp;quot;],[20,&amp;quot;政务&amp;quot;,&amp;quot;8:1|inline-dir:\&amp;quot;ltr\&amp;quot;&amp;quot;]]&quot; data-copy-origin=&quot;https://odocs.myoas.com&quot;&gt;&lt;p class=&quot;ql-direction-ltr ql-long-284244&quot; style=&quot;line-height: 100%;margin-bottom: 0pt;margin-top: 0pt;font-size: 11pt;color: #494949;&quot;&gt;&lt;span class=&quot;ql-author-284244&quot; style=&quot;&quot;&gt;首位广告标＞资源类型标＞官方标＞&lt;/span&gt;&lt;strong class=&quot;ql-author-284244&quot; style=&quot;&quot;&gt;官包/官渠 &lt;/strong&gt;&lt;span class=&quot;ql-author-284244&quot; style=&quot;&quot;&gt;&amp;gt; 广告主权益标＞竞价广告 &amp;gt; &lt;/span&gt;&lt;strong class=&quot;ql-author-284244&quot; style=&quot;&quot;&gt;政务&lt;/strong&gt;&lt;/p&gt;&lt;/span&gt;" link="&lt;span data-docs-delta=&quot;[[20,&amp;quot;首位广告标＞资源类型标＞官方标＞&amp;quot;,&amp;quot;inline-dir:\&amp;quot;ltr\&amp;quot;&amp;quot;],[20,&amp;quot;官包/官渠 &amp;quot;,&amp;quot;8:1|inline-dir:\&amp;quot;ltr\&amp;quot;&amp;quot;],[20,&amp;quot;&gt; 广告主权益标＞竞价广告 &gt; &amp;quot;,&amp;quot;inline-dir:\&amp;quot;ltr\&amp;quot;&amp;quot;],[20,&amp;quot;政务&amp;quot;,&amp;quot;8:1|inline-dir:\&amp;quot;ltr\&amp;quot;&amp;quot;]]&quot; data-copy-origin=&quot;https://odocs.myoas.com&quot;&gt;&lt;p class=&quot;ql-direction-ltr ql-long-284244&quot; style=&quot;line-height: 100%;margin-bottom: 0pt;margin-top: 0pt;font-size: 11pt;color: #494949;&quot;&gt;&lt;span class=&quot;ql-author-284244&quot; style=&quot;&quot;&gt;首位广告标＞资源类型标＞官方标＞&lt;/span&gt;&lt;strong class=&quot;ql-author-284244&quot; style=&quot;&quot;&gt;官包/官渠 &lt;/strong&gt;&lt;span class=&quot;ql-author-284244&quot; style=&quot;&quot;&gt;&amp;gt; 广告主权益标＞竞价广告 &amp;gt; &lt;/span&gt;&lt;strong class=&quot;ql-author-284244&quot; style=&quot;&quot;&gt;政务&lt;/strong&gt;&lt;/p&gt;&lt;/span&gt;" id="EMqu3kAwZpFHPyhhM5yz-23">
          <mxCell style="text;whiteSpace=wrap;html=1;" parent="1" vertex="1">
            <mxGeometry x="1195" y="-890" width="560" height="40" as="geometry" />
          </mxCell>
        </UserObject>
        <mxCell id="EMqu3kAwZpFHPyhhM5yz-56" style="edgeStyle=orthogonalEdgeStyle;rounded=0;orthogonalLoop=1;jettySize=auto;html=1;entryX=0.5;entryY=0;entryDx=0;entryDy=0;" parent="1" source="EMqu3kAwZpFHPyhhM5yz-28" target="EMqu3kAwZpFHPyhhM5yz-44" edge="1">
          <mxGeometry relative="1" as="geometry">
            <Array as="points">
              <mxPoint x="1475" y="-420" />
              <mxPoint x="1475" y="-420" />
            </Array>
          </mxGeometry>
        </mxCell>
        <mxCell id="EMqu3kAwZpFHPyhhM5yz-28" value="广告主权益" style="rounded=1;whiteSpace=wrap;html=1;fillColor=#f8cecc;strokeColor=#b85450;" parent="1" vertex="1">
          <mxGeometry x="1435" y="-487.19" width="110" height="50" as="geometry" />
        </mxCell>
        <mxCell id="EMqu3kAwZpFHPyhhM5yz-32" value="官方" style="rounded=1;whiteSpace=wrap;html=1;fillColor=#d5e8d4;strokeColor=#82b366;" parent="1" vertex="1">
          <mxGeometry x="840" y="-377" width="70" height="45.62" as="geometry" />
        </mxCell>
        <mxCell id="EMqu3kAwZpFHPyhhM5yz-57" style="edgeStyle=orthogonalEdgeStyle;rounded=0;orthogonalLoop=1;jettySize=auto;html=1;entryX=0.5;entryY=0;entryDx=0;entryDy=0;" parent="1" source="EMqu3kAwZpFHPyhhM5yz-43" target="EMqu3kAwZpFHPyhhM5yz-44" edge="1">
          <mxGeometry relative="1" as="geometry" />
        </mxCell>
        <mxCell id="EMqu3kAwZpFHPyhhM5yz-43" value="竞价标签" style="rounded=1;whiteSpace=wrap;html=1;fillColor=#fff2cc;strokeColor=#d6b656;" parent="1" vertex="1">
          <mxGeometry x="1310" y="-487.19" width="110" height="50" as="geometry" />
        </mxCell>
        <mxCell id="EMqu3kAwZpFHPyhhM5yz-44" value="&lt;span data-copy-origin=&quot;https://odocs.myoas.com&quot; data-docs-delta=&quot;[[20,&amp;quot;queryGlobalCreativeByPage&amp;quot;]]&quot;&gt;&lt;div style=&quot;line-height: 100%;&quot; data-language=&quot;java&quot; class=&quot;ql-code-block ql-direction-ltr ql-word-wrap-true ql-authorBlock-284244 ql-long-284244&quot;&gt;&lt;span class=&quot;ql-token hljs-title&quot;&gt;queryGlobalCreativeByPage&lt;/span&gt;&lt;/div&gt;&lt;/span&gt;" style="rounded=1;whiteSpace=wrap;html=1;" parent="1" vertex="1">
          <mxGeometry x="1305" y="-364.38" width="340" height="50" as="geometry" />
        </mxCell>
        <mxCell id="EMqu3kAwZpFHPyhhM5yz-49" style="edgeStyle=orthogonalEdgeStyle;rounded=0;orthogonalLoop=1;jettySize=auto;html=1;entryX=0.5;entryY=0;entryDx=0;entryDy=0;" parent="1" source="EMqu3kAwZpFHPyhhM5yz-46" target="EMqu3kAwZpFHPyhhM5yz-47" edge="1">
          <mxGeometry relative="1" as="geometry" />
        </mxCell>
        <mxCell id="EMqu3kAwZpFHPyhhM5yz-46" value="DB app_resource&lt;br&gt;app_icon_content" style="rounded=1;whiteSpace=wrap;html=1;" parent="1" vertex="1">
          <mxGeometry x="765" y="-710" width="220" height="90" as="geometry" />
        </mxCell>
        <mxCell id="EMqu3kAwZpFHPyhhM5yz-103" style="edgeStyle=orthogonalEdgeStyle;rounded=0;orthogonalLoop=1;jettySize=auto;html=1;entryX=0;entryY=0.5;entryDx=0;entryDy=0;" parent="1" source="EMqu3kAwZpFHPyhhM5yz-47" target="EMqu3kAwZpFHPyhhM5yz-43" edge="1">
          <mxGeometry relative="1" as="geometry" />
        </mxCell>
        <mxCell id="EMqu3kAwZpFHPyhhM5yz-47" value="resource-ext" style="rounded=1;whiteSpace=wrap;html=1;verticalAlign=top;fontStyle=3;fontSize=19;" parent="1" vertex="1">
          <mxGeometry x="800" y="-550.62" width="150" height="101.24" as="geometry" />
        </mxCell>
        <mxCell id="EMqu3kAwZpFHPyhhM5yz-48" value="竞价标签" style="rounded=1;whiteSpace=wrap;html=1;fillColor=#fff2cc;strokeColor=#d6b656;" parent="1" vertex="1">
          <mxGeometry x="820" y="-517" width="110" height="50" as="geometry" />
        </mxCell>
        <mxCell id="EMqu3kAwZpFHPyhhM5yz-53" style="edgeStyle=orthogonalEdgeStyle;rounded=0;orthogonalLoop=1;jettySize=auto;html=1;entryX=0.5;entryY=0;entryDx=0;entryDy=0;" parent="1" source="1YZOs5OkidO7PdD_BnGx-44" target="EMqu3kAwZpFHPyhhM5yz-28" edge="1">
          <mxGeometry relative="1" as="geometry" />
        </mxCell>
        <mxCell id="1YZOs5OkidO7PdD_BnGx-44" value="DB app_resource&lt;br&gt;app_extra_info" style="rounded=1;whiteSpace=wrap;html=1;" parent="1" vertex="1">
          <mxGeometry x="1090" y="-720" width="1140" height="90" as="geometry" />
        </mxCell>
        <mxCell id="EMqu3kAwZpFHPyhhM5yz-58" value="delivery-ext" style="rounded=1;whiteSpace=wrap;html=1;verticalAlign=top;fontStyle=3;fontSize=19;" parent="1" vertex="1">
          <mxGeometry x="3660" y="-571.62" width="1030" height="195.62" as="geometry" />
        </mxCell>
        <mxCell id="EMqu3kAwZpFHPyhhM5yz-59" value="resource" style="rounded=1;whiteSpace=wrap;html=1;verticalAlign=top;fontStyle=3;fontSize=19;" parent="1" vertex="1">
          <mxGeometry x="3480" y="-480.62" width="150" height="101.24" as="geometry" />
        </mxCell>
        <mxCell id="EMqu3kAwZpFHPyhhM5yz-60" value="数据源" style="rounded=1;whiteSpace=wrap;html=1;verticalAlign=top;" parent="1" vertex="1">
          <mxGeometry x="3480" y="-840" width="1210" height="229.38" as="geometry" />
        </mxCell>
        <mxCell id="EMqu3kAwZpFHPyhhM5yz-63" value="searchx" style="rounded=1;whiteSpace=wrap;html=1;verticalAlign=top;fontStyle=3;fontSize=19;" parent="1" vertex="1">
          <mxGeometry x="3830" y="-325.0000000000001" width="250" height="340" as="geometry" />
        </mxCell>
        <mxCell id="EMqu3kAwZpFHPyhhM5yz-64" value="page" style="rounded=1;whiteSpace=wrap;html=1;verticalAlign=top;fontStyle=3;fontSize=19;" parent="1" vertex="1">
          <mxGeometry x="3465" y="-325" width="250" height="340" as="geometry" />
        </mxCell>
        <mxCell id="EMqu3kAwZpFHPyhhM5yz-65" value="update" style="rounded=1;whiteSpace=wrap;html=1;verticalAlign=top;fontStyle=3;fontSize=19;" parent="1" vertex="1">
          <mxGeometry x="4450" y="-325.0000000000001" width="250" height="340" as="geometry" />
        </mxCell>
        <mxCell id="EMqu3kAwZpFHPyhhM5yz-66" value="store" style="rounded=1;whiteSpace=wrap;html=1;verticalAlign=top;fontStyle=3;fontSize=19;" parent="1" vertex="1">
          <mxGeometry x="3460" y="79.38" width="250" height="340" as="geometry" />
        </mxCell>
        <mxCell id="EMqu3kAwZpFHPyhhM5yz-67" value="detail" style="rounded=1;whiteSpace=wrap;html=1;verticalAlign=top;fontStyle=3;fontSize=19;" parent="1" vertex="1">
          <mxGeometry x="4160" y="-325" width="250" height="340" as="geometry" />
        </mxCell>
        <mxCell id="EMqu3kAwZpFHPyhhM5yz-70" value="首位广告" style="whiteSpace=wrap;html=1;" parent="1" vertex="1">
          <mxGeometry x="4880" y="-567.62" width="120" height="60" as="geometry" />
        </mxCell>
        <UserObject label="&lt;span data-docs-delta=&quot;[[20,&amp;quot;首位广告标＞资源类型标＞官方标＞&amp;quot;,&amp;quot;inline-dir:\&amp;quot;ltr\&amp;quot;&amp;quot;],[20,&amp;quot;官包/官渠 &amp;quot;,&amp;quot;8:1|inline-dir:\&amp;quot;ltr\&amp;quot;&amp;quot;],[20,&amp;quot;&gt; 广告主权益标＞竞价广告 &gt; &amp;quot;,&amp;quot;inline-dir:\&amp;quot;ltr\&amp;quot;&amp;quot;],[20,&amp;quot;政务&amp;quot;,&amp;quot;8:1|inline-dir:\&amp;quot;ltr\&amp;quot;&amp;quot;]]&quot; data-copy-origin=&quot;https://odocs.myoas.com&quot;&gt;&lt;p class=&quot;ql-direction-ltr ql-long-284244&quot; style=&quot;line-height: 100%;margin-bottom: 0pt;margin-top: 0pt;font-size: 11pt;color: #494949;&quot;&gt;&lt;span class=&quot;ql-author-284244&quot; style=&quot;&quot;&gt;首位广告标＞资源类型标＞官方标＞&lt;/span&gt;&lt;strong class=&quot;ql-author-284244&quot; style=&quot;&quot;&gt;官包/官渠 &lt;/strong&gt;&lt;span class=&quot;ql-author-284244&quot; style=&quot;&quot;&gt;&amp;gt; 广告主权益标＞竞价广告 &amp;gt; &lt;/span&gt;&lt;strong class=&quot;ql-author-284244&quot; style=&quot;&quot;&gt;政务&lt;/strong&gt;&lt;/p&gt;&lt;/span&gt;" link="&lt;span data-docs-delta=&quot;[[20,&amp;quot;首位广告标＞资源类型标＞官方标＞&amp;quot;,&amp;quot;inline-dir:\&amp;quot;ltr\&amp;quot;&amp;quot;],[20,&amp;quot;官包/官渠 &amp;quot;,&amp;quot;8:1|inline-dir:\&amp;quot;ltr\&amp;quot;&amp;quot;],[20,&amp;quot;&gt; 广告主权益标＞竞价广告 &gt; &amp;quot;,&amp;quot;inline-dir:\&amp;quot;ltr\&amp;quot;&amp;quot;],[20,&amp;quot;政务&amp;quot;,&amp;quot;8:1|inline-dir:\&amp;quot;ltr\&amp;quot;&amp;quot;]]&quot; data-copy-origin=&quot;https://odocs.myoas.com&quot;&gt;&lt;p class=&quot;ql-direction-ltr ql-long-284244&quot; style=&quot;line-height: 100%;margin-bottom: 0pt;margin-top: 0pt;font-size: 11pt;color: #494949;&quot;&gt;&lt;span class=&quot;ql-author-284244&quot; style=&quot;&quot;&gt;首位广告标＞资源类型标＞官方标＞&lt;/span&gt;&lt;strong class=&quot;ql-author-284244&quot; style=&quot;&quot;&gt;官包/官渠 &lt;/strong&gt;&lt;span class=&quot;ql-author-284244&quot; style=&quot;&quot;&gt;&amp;gt; 广告主权益标＞竞价广告 &amp;gt; &lt;/span&gt;&lt;strong class=&quot;ql-author-284244&quot; style=&quot;&quot;&gt;政务&lt;/strong&gt;&lt;/p&gt;&lt;/span&gt;" id="EMqu3kAwZpFHPyhhM5yz-71">
          <mxCell style="text;whiteSpace=wrap;html=1;" parent="1" vertex="1">
            <mxGeometry x="2780" y="-581.25" width="560" height="40" as="geometry" />
          </mxCell>
        </UserObject>
        <mxCell id="EMqu3kAwZpFHPyhhM5yz-72" style="edgeStyle=orthogonalEdgeStyle;rounded=0;orthogonalLoop=1;jettySize=auto;html=1;entryX=0.5;entryY=0;entryDx=0;entryDy=0;" parent="1" source="EMqu3kAwZpFHPyhhM5yz-73" target="EMqu3kAwZpFHPyhhM5yz-80" edge="1">
          <mxGeometry relative="1" as="geometry">
            <Array as="points">
              <mxPoint x="3885" y="-460.62" />
              <mxPoint x="3885" y="-460.62" />
            </Array>
          </mxGeometry>
        </mxCell>
        <mxCell id="EMqu3kAwZpFHPyhhM5yz-73" value="广告主权益" style="rounded=1;whiteSpace=wrap;html=1;" parent="1" vertex="1">
          <mxGeometry x="3845" y="-527.81" width="110" height="50" as="geometry" />
        </mxCell>
        <mxCell id="EMqu3kAwZpFHPyhhM5yz-75" value="官方" style="rounded=1;whiteSpace=wrap;html=1;" parent="1" vertex="1">
          <mxGeometry x="3520" y="-440.62" width="70" height="45.62" as="geometry" />
        </mxCell>
        <mxCell id="EMqu3kAwZpFHPyhhM5yz-78" style="edgeStyle=orthogonalEdgeStyle;rounded=0;orthogonalLoop=1;jettySize=auto;html=1;entryX=0.5;entryY=0;entryDx=0;entryDy=0;" parent="1" source="EMqu3kAwZpFHPyhhM5yz-79" target="EMqu3kAwZpFHPyhhM5yz-80" edge="1">
          <mxGeometry relative="1" as="geometry" />
        </mxCell>
        <mxCell id="EMqu3kAwZpFHPyhhM5yz-79" value="竞价标签" style="rounded=1;whiteSpace=wrap;html=1;" parent="1" vertex="1">
          <mxGeometry x="3720" y="-527.81" width="110" height="50" as="geometry" />
        </mxCell>
        <mxCell id="EMqu3kAwZpFHPyhhM5yz-80" value="&lt;span data-copy-origin=&quot;https://odocs.myoas.com&quot; data-docs-delta=&quot;[[20,&amp;quot;queryGlobalCreativeByPage&amp;quot;]]&quot;&gt;&lt;div style=&quot;line-height: 100%;&quot; data-language=&quot;java&quot; class=&quot;ql-code-block ql-direction-ltr ql-word-wrap-true ql-authorBlock-284244 ql-long-284244&quot;&gt;&lt;span class=&quot;ql-token hljs-title&quot;&gt;queryGlobalCreativeByPage&lt;/span&gt;&lt;/div&gt;&lt;/span&gt;" style="rounded=1;whiteSpace=wrap;html=1;" parent="1" vertex="1">
          <mxGeometry x="3715" y="-405" width="340" height="50" as="geometry" />
        </mxCell>
        <mxCell id="EMqu3kAwZpFHPyhhM5yz-81" value="&lt;span data-copy-origin=&quot;https://odocs.myoas.com&quot; data-docs-delta=&quot;[[20,&amp;quot;queryLabelByType&amp;quot;]]&quot;&gt;&lt;div style=&quot;line-height: 100%;&quot; data-language=&quot;java&quot; class=&quot;ql-code-block ql-direction-ltr ql-word-wrap-true ql-long-284244 ql-authorBlock-284244&quot;&gt;&lt;span class=&quot;ql-token hljs-title&quot;&gt;queryLabelByType&lt;/span&gt;&lt;/div&gt;&lt;/span&gt;" style="rounded=1;whiteSpace=wrap;html=1;" parent="1" vertex="1">
          <mxGeometry x="4215" y="-402.75" width="360" height="50" as="geometry" />
        </mxCell>
        <mxCell id="EMqu3kAwZpFHPyhhM5yz-82" style="edgeStyle=orthogonalEdgeStyle;rounded=0;orthogonalLoop=1;jettySize=auto;html=1;entryX=0.5;entryY=0;entryDx=0;entryDy=0;" parent="1" source="EMqu3kAwZpFHPyhhM5yz-83" target="EMqu3kAwZpFHPyhhM5yz-85" edge="1">
          <mxGeometry relative="1" as="geometry" />
        </mxCell>
        <mxCell id="EMqu3kAwZpFHPyhhM5yz-83" value="DB app_resource&lt;br&gt;app_icon_content" style="rounded=1;whiteSpace=wrap;html=1;" parent="1" vertex="1">
          <mxGeometry x="3490" y="-770.62" width="240" height="90" as="geometry" />
        </mxCell>
        <mxCell id="EMqu3kAwZpFHPyhhM5yz-84" style="edgeStyle=orthogonalEdgeStyle;rounded=0;orthogonalLoop=1;jettySize=auto;html=1;entryX=0;entryY=0.5;entryDx=0;entryDy=0;" parent="1" source="EMqu3kAwZpFHPyhhM5yz-85" target="EMqu3kAwZpFHPyhhM5yz-79" edge="1">
          <mxGeometry relative="1" as="geometry" />
        </mxCell>
        <mxCell id="EMqu3kAwZpFHPyhhM5yz-85" value="resource-ext" style="rounded=1;whiteSpace=wrap;html=1;verticalAlign=top;fontStyle=3;fontSize=19;" parent="1" vertex="1">
          <mxGeometry x="3480" y="-593.74" width="150" height="101.24" as="geometry" />
        </mxCell>
        <mxCell id="EMqu3kAwZpFHPyhhM5yz-86" value="竞价标签" style="rounded=1;whiteSpace=wrap;html=1;" parent="1" vertex="1">
          <mxGeometry x="3500" y="-557.62" width="110" height="50" as="geometry" />
        </mxCell>
        <mxCell id="EMqu3kAwZpFHPyhhM5yz-87" style="edgeStyle=orthogonalEdgeStyle;rounded=0;orthogonalLoop=1;jettySize=auto;html=1;entryX=0.5;entryY=0;entryDx=0;entryDy=0;" parent="1" source="EMqu3kAwZpFHPyhhM5yz-89" target="EMqu3kAwZpFHPyhhM5yz-73" edge="1">
          <mxGeometry relative="1" as="geometry" />
        </mxCell>
        <mxCell id="EMqu3kAwZpFHPyhhM5yz-89" value="DB app_resource&lt;br&gt;app_extra_info" style="rounded=1;whiteSpace=wrap;html=1;" parent="1" vertex="1">
          <mxGeometry x="3750" y="-770.3100000000001" width="700" height="90" as="geometry" />
        </mxCell>
        <mxCell id="EMqu3kAwZpFHPyhhM5yz-95" value="官方" style="rounded=1;whiteSpace=wrap;html=1;fillColor=#d5e8d4;strokeColor=#82b366;" parent="1" vertex="1">
          <mxGeometry x="1137.5" y="-161.25" width="70" height="45.62" as="geometry" />
        </mxCell>
        <mxCell id="EMqu3kAwZpFHPyhhM5yz-97" value="store（非推荐场景）" style="rounded=1;whiteSpace=wrap;html=1;verticalAlign=top;fontStyle=3;fontSize=19;" parent="1" vertex="1">
          <mxGeometry x="750" y="-284.38" width="250" height="340" as="geometry" />
        </mxCell>
        <mxCell id="EMqu3kAwZpFHPyhhM5yz-98" value="官方" style="rounded=1;whiteSpace=wrap;html=1;fillColor=#d5e8d4;strokeColor=#82b366;" parent="1" vertex="1">
          <mxGeometry x="827" y="-229.38" width="70" height="45.62" as="geometry" />
        </mxCell>
        <mxCell id="EMqu3kAwZpFHPyhhM5yz-106" value="广告主权益" style="rounded=1;whiteSpace=wrap;html=1;fillColor=#f8cecc;strokeColor=#b85450;" parent="1" vertex="1">
          <mxGeometry x="1117.5" y="-96.88" width="110" height="50" as="geometry" />
        </mxCell>
        <mxCell id="EMqu3kAwZpFHPyhhM5yz-107" value="竞价标签" style="rounded=1;whiteSpace=wrap;html=1;fillColor=#fff2cc;strokeColor=#d6b656;" parent="1" vertex="1">
          <mxGeometry x="1120" y="-26.879999999999995" width="110" height="50" as="geometry" />
        </mxCell>
        <mxCell id="EMqu3kAwZpFHPyhhM5yz-109" value="官方" style="rounded=1;whiteSpace=wrap;html=1;fillColor=#d5e8d4;strokeColor=#82b366;" parent="1" vertex="1">
          <mxGeometry x="1502.5" y="-92.5" width="70" height="45.62" as="geometry" />
        </mxCell>
        <mxCell id="EMqu3kAwZpFHPyhhM5yz-110" value="广告主权益" style="rounded=1;whiteSpace=wrap;html=1;fillColor=#f8cecc;strokeColor=#b85450;" parent="1" vertex="1">
          <mxGeometry x="1482.5" y="-35" width="110" height="50" as="geometry" />
        </mxCell>
        <mxCell id="EMqu3kAwZpFHPyhhM5yz-111" value="竞价标签" style="rounded=1;whiteSpace=wrap;html=1;fillColor=#fff2cc;strokeColor=#d6b656;" parent="1" vertex="1">
          <mxGeometry x="1485" y="29.380000000000006" width="110" height="50" as="geometry" />
        </mxCell>
        <mxCell id="EMqu3kAwZpFHPyhhM5yz-112" value="小游戏/快应用" style="rounded=1;whiteSpace=wrap;html=1;" parent="1" vertex="1">
          <mxGeometry x="1125" y="-223.14" width="95" height="44.38" as="geometry" />
        </mxCell>
        <mxCell id="EMqu3kAwZpFHPyhhM5yz-114" value="无" style="text;html=1;align=center;verticalAlign=middle;resizable=0;points=[];autosize=1;strokeColor=none;fillColor=none;" parent="1" vertex="1">
          <mxGeometry x="1850" y="-134.38" width="40" height="30" as="geometry" />
        </mxCell>
        <mxCell id="EMqu3kAwZpFHPyhhM5yz-115" value="小游戏/快应用" style="rounded=1;whiteSpace=wrap;html=1;" parent="1" vertex="1">
          <mxGeometry x="1490" y="-148.76" width="95" height="44.38" as="geometry" />
        </mxCell>
        <mxCell id="EMqu3kAwZpFHPyhhM5yz-116" value="首位广告" style="rounded=1;whiteSpace=wrap;html=1;" parent="1" vertex="1">
          <mxGeometry x="1490" y="-210" width="95" height="44.38" as="geometry" />
        </mxCell>
        <mxCell id="EMqu3kAwZpFHPyhhM5yz-118" value="数据源" style="rounded=1;whiteSpace=wrap;html=1;verticalAlign=top;" parent="1" vertex="1">
          <mxGeometry x="1190" y="870.0000000000001" width="1530" height="229.38" as="geometry" />
        </mxCell>
        <mxCell id="EMqu3kAwZpFHPyhhM5yz-119" value="delivery-ext" style="rounded=1;whiteSpace=wrap;html=1;verticalAlign=top;fontStyle=3;fontSize=19;" parent="1" vertex="1">
          <mxGeometry x="1530" y="1142.38" width="1200" height="195.62" as="geometry" />
        </mxCell>
        <mxCell id="EMqu3kAwZpFHPyhhM5yz-120" value="resource" style="rounded=1;whiteSpace=wrap;html=1;verticalAlign=top;fontStyle=3;fontSize=19;" parent="1" vertex="1">
          <mxGeometry x="1240" y="1253.7600000000002" width="150" height="101.24" as="geometry" />
        </mxCell>
        <mxCell id="EMqu3kAwZpFHPyhhM5yz-121" style="edgeStyle=orthogonalEdgeStyle;rounded=0;orthogonalLoop=1;jettySize=auto;html=1;exitX=0.5;exitY=0;exitDx=0;exitDy=0;" parent="1" source="EMqu3kAwZpFHPyhhM5yz-139" edge="1">
          <mxGeometry relative="1" as="geometry">
            <mxPoint x="1240" y="1304.38" as="targetPoint" />
            <Array as="points">
              <mxPoint x="1930" y="919" />
              <mxPoint x="1090" y="919" />
              <mxPoint x="1090" y="1304" />
            </Array>
          </mxGeometry>
        </mxCell>
        <mxCell id="EMqu3kAwZpFHPyhhM5yz-122" value="searchx" style="rounded=1;whiteSpace=wrap;html=1;verticalAlign=top;fontStyle=3;fontSize=19;" parent="1" vertex="1">
          <mxGeometry x="1860" y="1385" width="250" height="495" as="geometry" />
        </mxCell>
        <mxCell id="EMqu3kAwZpFHPyhhM5yz-123" value="page" style="rounded=1;whiteSpace=wrap;html=1;verticalAlign=top;fontStyle=3;fontSize=19;" parent="1" vertex="1">
          <mxGeometry x="1502.5" y="1380" width="250" height="535" as="geometry" />
        </mxCell>
        <mxCell id="EMqu3kAwZpFHPyhhM5yz-124" value="update" style="rounded=1;whiteSpace=wrap;html=1;verticalAlign=top;fontStyle=3;fontSize=19;" parent="1" vertex="1">
          <mxGeometry x="2480" y="1385" width="250" height="340" as="geometry" />
        </mxCell>
        <mxCell id="EMqu3kAwZpFHPyhhM5yz-126" value="detail" style="rounded=1;whiteSpace=wrap;html=1;verticalAlign=top;fontStyle=3;fontSize=19;" parent="1" vertex="1">
          <mxGeometry x="2190" y="1385" width="250" height="340" as="geometry" />
        </mxCell>
        <mxCell id="EMqu3kAwZpFHPyhhM5yz-127" style="edgeStyle=orthogonalEdgeStyle;rounded=0;orthogonalLoop=1;jettySize=auto;html=1;entryX=0.5;entryY=0;entryDx=0;entryDy=0;" parent="1" source="EMqu3kAwZpFHPyhhM5yz-128" target="EMqu3kAwZpFHPyhhM5yz-132" edge="1">
          <mxGeometry relative="1" as="geometry">
            <Array as="points">
              <mxPoint x="1915" y="1249.38" />
              <mxPoint x="1915" y="1249.38" />
            </Array>
          </mxGeometry>
        </mxCell>
        <mxCell id="EMqu3kAwZpFHPyhhM5yz-128" value="广告主权益" style="rounded=1;whiteSpace=wrap;html=1;fillColor=#f8cecc;strokeColor=#b85450;" parent="1" vertex="1">
          <mxGeometry x="1875" y="1182.19" width="110" height="50" as="geometry" />
        </mxCell>
        <mxCell id="EMqu3kAwZpFHPyhhM5yz-129" value="官方" style="rounded=1;whiteSpace=wrap;html=1;fillColor=#d5e8d4;strokeColor=#82b366;" parent="1" vertex="1">
          <mxGeometry x="1280" y="1292.38" width="70" height="45.62" as="geometry" />
        </mxCell>
        <mxCell id="EMqu3kAwZpFHPyhhM5yz-130" style="edgeStyle=orthogonalEdgeStyle;rounded=0;orthogonalLoop=1;jettySize=auto;html=1;entryX=0.5;entryY=0;entryDx=0;entryDy=0;" parent="1" source="EMqu3kAwZpFHPyhhM5yz-131" target="EMqu3kAwZpFHPyhhM5yz-132" edge="1">
          <mxGeometry relative="1" as="geometry" />
        </mxCell>
        <mxCell id="EMqu3kAwZpFHPyhhM5yz-131" value="竞价标签" style="rounded=1;whiteSpace=wrap;html=1;fillColor=#fff2cc;strokeColor=#d6b656;" parent="1" vertex="1">
          <mxGeometry x="1750" y="1182.19" width="110" height="50" as="geometry" />
        </mxCell>
        <mxCell id="EMqu3kAwZpFHPyhhM5yz-132" value="&lt;span data-copy-origin=&quot;https://odocs.myoas.com&quot; data-docs-delta=&quot;[[20,&amp;quot;queryGlobalCreativeByPage&amp;quot;]]&quot;&gt;&lt;div style=&quot;line-height: 100%;&quot; data-language=&quot;java&quot; class=&quot;ql-code-block ql-direction-ltr ql-word-wrap-true ql-authorBlock-284244 ql-long-284244&quot;&gt;&lt;span class=&quot;ql-token hljs-title&quot;&gt;queryGlobalCreativeByPage&lt;/span&gt;&lt;/div&gt;&lt;/span&gt;" style="rounded=1;whiteSpace=wrap;html=1;" parent="1" vertex="1">
          <mxGeometry x="1745" y="1305" width="340" height="50" as="geometry" />
        </mxCell>
        <mxCell id="EMqu3kAwZpFHPyhhM5yz-133" style="edgeStyle=orthogonalEdgeStyle;rounded=0;orthogonalLoop=1;jettySize=auto;html=1;entryX=0.5;entryY=0;entryDx=0;entryDy=0;" parent="1" source="EMqu3kAwZpFHPyhhM5yz-134" target="EMqu3kAwZpFHPyhhM5yz-136" edge="1">
          <mxGeometry relative="1" as="geometry" />
        </mxCell>
        <mxCell id="EMqu3kAwZpFHPyhhM5yz-134" value="DB app_resource&lt;br&gt;app_icon_content" style="rounded=1;whiteSpace=wrap;html=1;" parent="1" vertex="1">
          <mxGeometry x="1205" y="959.3800000000001" width="220" height="90" as="geometry" />
        </mxCell>
        <mxCell id="EMqu3kAwZpFHPyhhM5yz-135" style="edgeStyle=orthogonalEdgeStyle;rounded=0;orthogonalLoop=1;jettySize=auto;html=1;entryX=0;entryY=0.5;entryDx=0;entryDy=0;" parent="1" source="EMqu3kAwZpFHPyhhM5yz-136" target="EMqu3kAwZpFHPyhhM5yz-131" edge="1">
          <mxGeometry relative="1" as="geometry" />
        </mxCell>
        <mxCell id="EMqu3kAwZpFHPyhhM5yz-136" value="resource-ext" style="rounded=1;whiteSpace=wrap;html=1;verticalAlign=top;fontStyle=3;fontSize=19;" parent="1" vertex="1">
          <mxGeometry x="1240" y="1118.7600000000002" width="150" height="101.24" as="geometry" />
        </mxCell>
        <mxCell id="EMqu3kAwZpFHPyhhM5yz-137" value="竞价标签" style="rounded=1;whiteSpace=wrap;html=1;fillColor=#fff2cc;strokeColor=#d6b656;" parent="1" vertex="1">
          <mxGeometry x="1260" y="1152.38" width="110" height="50" as="geometry" />
        </mxCell>
        <mxCell id="EMqu3kAwZpFHPyhhM5yz-138" style="edgeStyle=orthogonalEdgeStyle;rounded=0;orthogonalLoop=1;jettySize=auto;html=1;entryX=0.5;entryY=0;entryDx=0;entryDy=0;" parent="1" source="EMqu3kAwZpFHPyhhM5yz-139" target="EMqu3kAwZpFHPyhhM5yz-128" edge="1">
          <mxGeometry relative="1" as="geometry" />
        </mxCell>
        <mxCell id="EMqu3kAwZpFHPyhhM5yz-190" style="edgeStyle=orthogonalEdgeStyle;rounded=0;orthogonalLoop=1;jettySize=auto;html=1;entryX=0.5;entryY=0;entryDx=0;entryDy=0;" parent="1" source="EMqu3kAwZpFHPyhhM5yz-139" target="EMqu3kAwZpFHPyhhM5yz-74" edge="1">
          <mxGeometry relative="1" as="geometry">
            <Array as="points">
              <mxPoint x="1930" y="920" />
              <mxPoint x="2450" y="920" />
            </Array>
          </mxGeometry>
        </mxCell>
        <mxCell id="EMqu3kAwZpFHPyhhM5yz-139" value="DB app_resource&lt;br&gt;app_extra_info" style="rounded=1;whiteSpace=wrap;html=1;" parent="1" vertex="1">
          <mxGeometry x="1620" y="939.69" width="620" height="90" as="geometry" />
        </mxCell>
        <mxCell id="EMqu3kAwZpFHPyhhM5yz-140" value="官方" style="rounded=1;whiteSpace=wrap;html=1;fillColor=#d5e8d4;strokeColor=#82b366;" parent="1" vertex="1">
          <mxGeometry x="2570" y="1440" width="70" height="45.62" as="geometry" />
        </mxCell>
        <mxCell id="EMqu3kAwZpFHPyhhM5yz-142" value="store（非推荐场景）" style="rounded=1;whiteSpace=wrap;html=1;verticalAlign=top;fontStyle=3;fontSize=19;" parent="1" vertex="1">
          <mxGeometry x="1190" y="1385" width="250" height="340" as="geometry" />
        </mxCell>
        <mxCell id="EMqu3kAwZpFHPyhhM5yz-143" value="官方" style="rounded=1;whiteSpace=wrap;html=1;fillColor=#d5e8d4;strokeColor=#82b366;" parent="1" vertex="1">
          <mxGeometry x="1275" y="1440" width="70" height="45.62" as="geometry" />
        </mxCell>
        <mxCell id="EMqu3kAwZpFHPyhhM5yz-194" style="edgeStyle=orthogonalEdgeStyle;rounded=0;orthogonalLoop=1;jettySize=auto;html=1;entryX=0.5;entryY=0;entryDx=0;entryDy=0;" parent="1" source="EMqu3kAwZpFHPyhhM5yz-62" target="EMqu3kAwZpFHPyhhM5yz-77" edge="1">
          <mxGeometry relative="1" as="geometry" />
        </mxCell>
        <mxCell id="EMqu3kAwZpFHPyhhM5yz-62" value="&lt;i&gt;&lt;u&gt;&lt;b&gt;联运&lt;/b&gt;&lt;/u&gt;&lt;/i&gt;" style="rounded=1;whiteSpace=wrap;html=1;" parent="1" vertex="1">
          <mxGeometry x="2539" y="929.6899999999998" width="62" height="90" as="geometry" />
        </mxCell>
        <mxCell id="EMqu3kAwZpFHPyhhM5yz-165" style="edgeStyle=orthogonalEdgeStyle;rounded=0;orthogonalLoop=1;jettySize=auto;html=1;entryX=0.5;entryY=0;entryDx=0;entryDy=0;" parent="1" source="EMqu3kAwZpFHPyhhM5yz-74" target="EMqu3kAwZpFHPyhhM5yz-155" edge="1">
          <mxGeometry relative="1" as="geometry" />
        </mxCell>
        <mxCell id="EMqu3kAwZpFHPyhhM5yz-198" style="edgeStyle=orthogonalEdgeStyle;rounded=0;orthogonalLoop=1;jettySize=auto;html=1;entryX=0.5;entryY=0;entryDx=0;entryDy=0;" parent="1" source="EMqu3kAwZpFHPyhhM5yz-77" target="EMqu3kAwZpFHPyhhM5yz-155" edge="1">
          <mxGeometry relative="1" as="geometry" />
        </mxCell>
        <mxCell id="EMqu3kAwZpFHPyhhM5yz-77" value="&lt;b&gt;&lt;i&gt;&lt;u&gt;官渠/官渠互通&lt;/u&gt;&lt;/i&gt;&lt;/b&gt;" style="rounded=1;whiteSpace=wrap;html=1;fillColor=#e1d5e7;strokeColor=#9673a6;" parent="1" vertex="1">
          <mxGeometry x="2520" y="1186.57" width="100" height="45.62" as="geometry" />
        </mxCell>
        <mxCell id="EMqu3kAwZpFHPyhhM5yz-155" value="&lt;span data-copy-origin=&quot;https://odocs.myoas.com&quot; data-docs-delta=&quot;[[20,&amp;quot;queryLabelByType&amp;quot;]]&quot;&gt;&lt;div style=&quot;line-height: 100%;&quot; data-language=&quot;java&quot; class=&quot;ql-code-block ql-direction-ltr ql-word-wrap-true ql-long-284244 ql-authorBlock-284244&quot;&gt;&lt;span class=&quot;ql-token hljs-title&quot;&gt;&lt;u&gt;&lt;i&gt;&lt;b&gt;queryLabelByAppId&lt;/b&gt;&lt;/i&gt;&lt;/u&gt;&lt;/span&gt;&lt;/div&gt;&lt;/span&gt;" style="rounded=1;whiteSpace=wrap;html=1;" parent="1" vertex="1">
          <mxGeometry x="2300" y="1305" width="360" height="50" as="geometry" />
        </mxCell>
        <mxCell id="EMqu3kAwZpFHPyhhM5yz-159" value="&lt;b&gt;&lt;i&gt;&lt;u&gt;官渠/官渠互通&lt;/u&gt;&lt;/i&gt;&lt;/b&gt;" style="rounded=1;whiteSpace=wrap;html=1;fillColor=#e1d5e7;strokeColor=#9673a6;" parent="1" vertex="1">
          <mxGeometry x="2265" y="1495" width="100" height="45.62" as="geometry" />
        </mxCell>
        <mxCell id="EMqu3kAwZpFHPyhhM5yz-182" value="&lt;span data-copy-origin=&quot;https://odocs.myoas.com&quot; data-docs-delta=&quot;[[20,&amp;quot;queryLabelByType&amp;quot;]]&quot;&gt;&lt;div style=&quot;line-height: 100%;&quot; data-language=&quot;java&quot; class=&quot;ql-code-block ql-direction-ltr ql-word-wrap-true ql-long-284244 ql-authorBlock-284244&quot;&gt;&lt;b&gt;&lt;i&gt;&lt;u&gt;强行把“官渠”插入到质量标签&lt;/u&gt;&lt;/i&gt;&lt;/b&gt;&lt;/div&gt;&lt;/span&gt;" style="rounded=1;whiteSpace=wrap;html=1;" parent="1" vertex="1">
          <mxGeometry x="2195" y="1545.62" width="240" height="50" as="geometry" />
        </mxCell>
        <mxCell id="EMqu3kAwZpFHPyhhM5yz-74" value="&lt;b&gt;&lt;i&gt;&lt;u&gt;政务&lt;/u&gt;&lt;/i&gt;&lt;/b&gt;" style="rounded=1;whiteSpace=wrap;html=1;fillColor=#dae8fc;strokeColor=#6c8ebf;" parent="1" vertex="1">
          <mxGeometry x="2415" y="1186.57" width="70" height="45.62" as="geometry" />
        </mxCell>
        <mxCell id="EMqu3kAwZpFHPyhhM5yz-202" value="&lt;span data-copy-origin=&quot;https://odocs.myoas.com&quot; data-docs-delta=&quot;[[20,&amp;quot;queryGlobalCreativeByPage&amp;quot;]]&quot;&gt;&lt;div style=&quot;line-height: 100%;&quot; data-language=&quot;java&quot; class=&quot;ql-code-block ql-direction-ltr ql-word-wrap-true ql-authorBlock-284244 ql-long-284244&quot;&gt;&lt;span class=&quot;ql-token hljs-title&quot;&gt;&lt;u&gt;&lt;i&gt;&lt;b&gt;官渠实验&lt;/b&gt;&lt;/i&gt;&lt;/u&gt;&lt;/span&gt;&lt;/div&gt;&lt;/span&gt;" style="rounded=1;whiteSpace=wrap;html=1;" parent="1" vertex="1">
          <mxGeometry x="2220" y="1437.8100000000002" width="180" height="50" as="geometry" />
        </mxCell>
        <mxCell id="EMqu3kAwZpFHPyhhM5yz-209" value="&lt;span data-copy-origin=&quot;https://odocs.myoas.com&quot; data-docs-delta=&quot;[[20,&amp;quot;queryLabelByType&amp;quot;]]&quot;&gt;&lt;div style=&quot;line-height: 100%;&quot; data-language=&quot;java&quot; class=&quot;ql-code-block ql-direction-ltr ql-word-wrap-true ql-long-284244 ql-authorBlock-284244&quot;&gt;&lt;b&gt;&lt;i&gt;&lt;u&gt;cardStyle 1.1 颜色适配&lt;br&gt;&lt;/u&gt;&lt;/i&gt;&lt;/b&gt;&lt;/div&gt;&lt;/span&gt;" style="rounded=1;whiteSpace=wrap;html=1;" parent="1" vertex="1">
          <mxGeometry x="2485" y="1505.9399999999998" width="240" height="50" as="geometry" />
        </mxCell>
        <mxCell id="EpBGjjW55CrgH6KDZz3k-2" value="&lt;b&gt;&lt;font style=&quot;font-size: 100px;&quot;&gt;&lt;i&gt;&lt;u&gt;图中加粗斜体为修改点&lt;/u&gt;&lt;/i&gt;&lt;/font&gt;&lt;/b&gt;" style="text;html=1;align=center;verticalAlign=middle;resizable=0;points=[];autosize=1;strokeColor=none;fillColor=none;" parent="1" vertex="1">
          <mxGeometry x="1370" y="708" width="1020" height="130" as="geometry" />
        </mxCell>
        <mxCell id="EMqu3kAwZpFHPyhhM5yz-90" value="官方" style="rounded=1;whiteSpace=wrap;html=1;fillColor=#d5e8d4;strokeColor=#82b366;" parent="1" vertex="1">
          <mxGeometry x="2130" y="-229.38" width="70" height="45.62" as="geometry" />
        </mxCell>
        <mxCell id="4hsmViWtGQXoQg3-sEdV-4" value="角标优先级排序" style="rounded=1;whiteSpace=wrap;html=1;verticalAlign=top;" vertex="1" parent="1">
          <mxGeometry x="1520" y="1410" width="210" height="410" as="geometry" />
        </mxCell>
        <mxCell id="EMqu3kAwZpFHPyhhM5yz-149" value="小游戏/快应用" style="rounded=1;whiteSpace=wrap;html=1;" parent="1" vertex="1">
          <mxGeometry x="1572.5" y="1440" width="95" height="44.38" as="geometry" />
        </mxCell>
        <mxCell id="EMqu3kAwZpFHPyhhM5yz-141" value="官方" style="rounded=1;whiteSpace=wrap;html=1;fillColor=#d5e8d4;strokeColor=#82b366;" parent="1" vertex="1">
          <mxGeometry x="1585" y="1495" width="70" height="45.62" as="geometry" />
        </mxCell>
        <mxCell id="EMqu3kAwZpFHPyhhM5yz-188" value="&lt;b&gt;&lt;i&gt;&lt;u&gt;官渠/官渠互通&lt;/u&gt;&lt;/i&gt;&lt;/b&gt;" style="rounded=1;whiteSpace=wrap;html=1;fillColor=#e1d5e7;strokeColor=#9673a6;" parent="1" vertex="1">
          <mxGeometry x="1580" y="1564.38" width="100" height="45.62" as="geometry" />
        </mxCell>
        <mxCell id="EMqu3kAwZpFHPyhhM5yz-144" value="广告主权益" style="rounded=1;whiteSpace=wrap;html=1;fillColor=#f8cecc;strokeColor=#b85450;" parent="1" vertex="1">
          <mxGeometry x="1560" y="1622.5" width="110" height="50" as="geometry" />
        </mxCell>
        <mxCell id="EMqu3kAwZpFHPyhhM5yz-145" value="竞价标签" style="rounded=1;whiteSpace=wrap;html=1;fillColor=#fff2cc;strokeColor=#d6b656;" parent="1" vertex="1">
          <mxGeometry x="1557.5" y="1690" width="110" height="50" as="geometry" />
        </mxCell>
        <mxCell id="4hsmViWtGQXoQg3-sEdV-5" value="角标优先级排序" style="rounded=1;whiteSpace=wrap;html=1;verticalAlign=top;" vertex="1" parent="1">
          <mxGeometry x="1877.5" y="1410" width="210" height="440" as="geometry" />
        </mxCell>
        <mxCell id="EMqu3kAwZpFHPyhhM5yz-146" value="官方" style="rounded=1;whiteSpace=wrap;html=1;fillColor=#d5e8d4;strokeColor=#82b366;" parent="1" vertex="1">
          <mxGeometry x="1947.5" y="1550" width="70" height="45.62" as="geometry" />
        </mxCell>
        <mxCell id="EMqu3kAwZpFHPyhhM5yz-147" value="广告主权益" style="rounded=1;whiteSpace=wrap;html=1;fillColor=#f8cecc;strokeColor=#b85450;" parent="1" vertex="1">
          <mxGeometry x="1930" y="1660" width="110" height="50" as="geometry" />
        </mxCell>
        <mxCell id="EMqu3kAwZpFHPyhhM5yz-148" value="竞价标签" style="rounded=1;whiteSpace=wrap;html=1;fillColor=#fff2cc;strokeColor=#d6b656;" parent="1" vertex="1">
          <mxGeometry x="1930" y="1725" width="110" height="50" as="geometry" />
        </mxCell>
        <mxCell id="EMqu3kAwZpFHPyhhM5yz-151" value="小游戏/快应用" style="rounded=1;whiteSpace=wrap;html=1;" parent="1" vertex="1">
          <mxGeometry x="1937.5" y="1490.6200000000001" width="95" height="44.38" as="geometry" />
        </mxCell>
        <mxCell id="EMqu3kAwZpFHPyhhM5yz-152" value="首位广告" style="rounded=1;whiteSpace=wrap;html=1;" parent="1" vertex="1">
          <mxGeometry x="1937.5" y="1435" width="95" height="44.38" as="geometry" />
        </mxCell>
        <mxCell id="EMqu3kAwZpFHPyhhM5yz-158" value="&lt;b&gt;&lt;i&gt;&lt;u&gt;政务&lt;/u&gt;&lt;/i&gt;&lt;/b&gt;" style="rounded=1;whiteSpace=wrap;html=1;fillColor=#dae8fc;strokeColor=#6c8ebf;" parent="1" vertex="1">
          <mxGeometry x="1950" y="1790" width="70" height="45.62" as="geometry" />
        </mxCell>
        <mxCell id="EMqu3kAwZpFHPyhhM5yz-161" value="&lt;i style=&quot;&quot;&gt;&lt;u&gt;&lt;b&gt;官渠/官渠互通&lt;/b&gt;&lt;/u&gt;&lt;/i&gt;" style="rounded=1;whiteSpace=wrap;html=1;fillColor=#e1d5e7;strokeColor=#9673a6;" parent="1" vertex="1">
          <mxGeometry x="1932.5" y="1603.75" width="100" height="45.62" as="geometry" />
        </mxCell>
        <mxCell id="EMqu3kAwZpFHPyhhM5yz-184" value="&lt;span data-copy-origin=&quot;https://odocs.myoas.com&quot; data-docs-delta=&quot;[[20,&amp;quot;queryGlobalCreativeByPage&amp;quot;]]&quot;&gt;&lt;div style=&quot;line-height: 100%;&quot; data-language=&quot;java&quot; class=&quot;ql-code-block ql-direction-ltr ql-word-wrap-true ql-authorBlock-284244 ql-long-284244&quot;&gt;&lt;span class=&quot;ql-token hljs-title&quot;&gt;&lt;b&gt;&lt;i&gt;&lt;u&gt;广告主权益、竞价标签、官渠&lt;/u&gt;&lt;/i&gt;&lt;/b&gt;&lt;br&gt;频控&lt;/span&gt;&lt;/div&gt;&lt;/span&gt;" style="rounded=1;whiteSpace=wrap;html=1;" parent="1" vertex="1">
          <mxGeometry x="1527.5" y="1830" width="180" height="50" as="geometry" />
        </mxCell>
        <mxCell id="EMqu3kAwZpFHPyhhM5yz-187" value="&lt;b&gt;&lt;i&gt;&lt;u&gt;政务&lt;/u&gt;&lt;/i&gt;&lt;/b&gt;" style="rounded=1;whiteSpace=wrap;html=1;fillColor=#dae8fc;strokeColor=#6c8ebf;" parent="1" vertex="1">
          <mxGeometry x="1580" y="1754" width="70" height="45.62" as="geometry" />
        </mxCell>
      </root>
    </mxGraphModel>
  </diagram>
</mxfile>
